<?xml version="1.0" encoding="UTF-8"?>
<svg id="Livello_1" data-name="Livello 1" xmlns="http://www.w3.org/2000/svg" version="1.1" viewBox="0 0 512 512">
  <defs>
    <style>
      .cls-1 {
        fill: #000;
      }

      .cls-1, .cls-2 {
        stroke-width: 0px;
      }

      .cls-2 {
        display: none;
        fill: #018c38;
      }
    </style>
  </defs>
  <circle class="cls-2" cx="172.1" cy="168.9" r="49.3"/>
  <path class="cls-1" d="M484.3,339.1h-83.1v-193.5c0-14.6-11-27.1-25.7-28.2s-29.8,11.6-29.8,27.6v221.8c0,15.3,12.4,27.7,27.7,27.7h110.3c14.6,0,27.1-11,28.2-25.7s-11.6-29.8-27.6-29.8h0ZM394.3,385.2h-.2l.2-.2v.2ZM375.6,388.4c-13.8,1.4-25.2-10-23.8-23.8,1-10.1,9.2-18.4,19.4-19.4,10.1-1,25.2,10,23.8,23.8-1.4,13.8-9.2,18.4-19.4,19.4ZM373.4,333.1c-12.4,0-22.5-10.5-21.7-23.1.7-10.8,9.4-19.6,20.3-20.3,12.6-.8,23.1,9.2,23.1,21.7s-9.7,21.7-21.7,21.7ZM375.6,277.6c-13.8,1.4-25.2-10-23.8-23.8,1-10.1,9.2-18.4,19.4-19.4,10.1-1,25.2,10,23.8,23.8-1,10.1-9.2,18.4-19.4,19.4ZM387.5,232.2h0ZM375.6,222.1c-13.8,1.4-25.2-10-23.8-23.8,1-10.1,9.2-18.4,19.4-19.4s25.2,10,23.8,23.8c-1,10.1-9.2,18.4-19.4,19.4ZM357.5,177.9h0ZM363.5,174.7h.2-.2ZM383,171h0ZM388.6,168.3h0ZM375.6,166.7c-13.8,1.4-25.2-10-23.8-23.8,1-10.1,9.2-18.4,19.4-19.4,13.8-1.4,25.2,10,23.8,23.8-1.4,13.8-9.2,18.4-19.4,19.4ZM431,388.4c-13.8,1.4-25.2-10-23.8-23.8,1-10.1,9.2-18.4,19.4-19.4,10.1-1,25.2,10,23.8,23.8-1.4,13.8-9.2,18.4-19.4,19.4ZM486.5,388.4c-13.8,1.4-25.2-10-23.8-23.8,1-10.1,9.2-18.4,19.4-19.4,10.1-1,25.2,10,23.8,23.8-1.4,13.8-9.2,18.4-19.4,19.4Z"/>
  <path class="cls-1" d="M183.5,354.5c-54.3,0-98.4-44.1-98.4-98.4s44.1-98.4,98.4-98.4,66.9,19,84.2,47.4l66.7-58.1c-23.4-23.4-18.5-18.5-41.8-41.8l-29.8,20.1c-18.3-7.6-24.4-10.1-42.7-17.7l-6.9-35.2h-59.1l-6.9,35.2c-18.3,7.6-24.3,10.1-42.7,17.7l-29.8-20.1c-23.4,23.4-18.5,18.5-41.8,41.8l20.1,29.8c-7.5,18.3-10.1,24.3-17.6,42.7L0,226.5v59.1l35.2,6.9c7.5,18.4,10.1,24.3,17.6,42.7l-20.1,29.8c23.4,23.4,18.5,18.5,41.8,41.8l29.8-20.1c18.3,7.5,24.3,10.1,42.7,17.6l6.9,35.2h59.1l6.9-35.2c18.3-7.5,24.4-10.1,42.7-17.6l29.8,20.1,41.8-41.8-66.7-58.1c-17.2,28.4-48.5,47.4-84.2,47.4h0Z"/>
</svg>