<?xml version="1.0" encoding="UTF-8"?>
<svg id="Livello_1" data-name="Livello 1" xmlns="http://www.w3.org/2000/svg" viewBox="0 0 512 367.4">
  <defs>
    <style>
      .cls-1 {
        fill: #fff;
        stroke-width: 0px;
      }
    </style>
  </defs>
  <path class="cls-1" d="M484.38,266.85h-83.09V73.34c0-14.62-11-27.09-25.73-28.23-14.74-1.13-29.81,11.56-29.81,27.66v221.84c0,15.3,12.36,27.66,27.66,27.66h110.3c14.62,0,27.09-11,28.23-25.73s-11.56-29.81-27.66-29.81h0l.11.11ZM394.38,312.98h-.23l.23-.23v.23ZM375.67,316.16c-13.83,1.36-25.17-9.98-23.81-23.81,1.02-10.09,9.18-18.36,19.38-19.38,10.09-1.02,25.17,9.98,23.81,23.81s-9.18,18.36-19.38,19.38ZM373.52,260.84c-12.36,0-22.56-10.54-21.65-23.13.68-10.77,9.41-19.61,20.29-20.29,12.58-.79,23.13,9.18,23.13,21.65s-9.75,21.65-21.65,21.65h0l-.11.11ZM375.67,205.41c-13.83,1.36-25.17-9.98-23.81-23.81,1.02-10.09,9.18-18.36,19.38-19.38,10.09-1.02,25.17,9.98,23.81,23.81-1.02,10.09-9.18,18.36-19.38,19.38ZM387.57,159.95h0ZM375.67,149.86c-13.83,1.36-25.17-9.98-23.81-23.81,1.02-10.09,9.18-18.36,19.38-19.38s25.17,9.98,23.81,23.81c-1.02,10.09-9.18,18.36-19.38,19.38ZM357.65,105.65h0ZM363.54,102.48h.23-.23ZM383.15,98.74h0ZM388.71,96.02h0ZM375.67,94.43c-13.83,1.36-25.17-9.98-23.81-23.81,1.02-10.09,9.18-18.36,19.38-19.38,13.83-1.36,25.17,9.98,23.81,23.81s-9.18,18.36-19.38,19.38h0ZM431.1,316.16c-13.83,1.36-25.17-9.98-23.81-23.81,1.02-10.09,9.18-18.36,19.38-19.38,10.09-1.02,25.17,9.98,23.81,23.81-1.36,13.83-9.18,18.36-19.38,19.38ZM486.65,316.16c-13.83,1.36-25.17-9.98-23.81-23.81,1.02-10.09,9.18-18.36,19.38-19.38,10.09-1.02,25.17,9.98,23.81,23.81-1.36,13.83-9.18,18.36-19.38,19.38Z"/>
  <path class="cls-1" d="M183.53,282.26c-54.3,0-98.4-44.1-98.4-98.4s44.1-98.4,98.4-98.4,66.88,19.04,84.23,47.38l66.77-58.15c-23.35-23.35-18.48-18.48-41.83-41.83l-29.81,20.06c-18.25-7.6-24.37-10.09-42.74-17.68L213.23,0h-59.06l-6.91,35.25c-18.25,7.6-24.26,10.09-42.74,17.68l-29.81-20.06c-23.35,23.35-18.48,18.48-41.83,41.83l20.06,29.81c-7.48,18.25-10.09,24.26-17.57,42.74L0,154.28v59.06l35.25,6.91c7.48,18.36,10.09,24.26,17.57,42.74l-20.06,29.81c23.35,23.35,18.48,18.48,41.83,41.83l29.81-20.06c18.25,7.48,24.26,10.09,42.74,17.57l6.91,35.25h59.06l6.91-35.25c18.25-7.48,24.37-10.09,42.74-17.57l29.81,20.06,41.83-41.83-66.77-58.15c-17.23,28.45-48.52,47.38-84.23,47.38h0l.23.23h-.11Z"/>
</svg>