<?xml version="1.0" encoding="UTF-8"?>
<svg id="uuid-453d3e37-ddd1-44a0-aad5-5111846d9be1" data-name="Livello 1" xmlns="http://www.w3.org/2000/svg" viewBox="0 0 512 512">
  <defs>
    <style>
      .uuid-e155d2ed-4c60-4dbf-810d-f43dcf7be634 {
        fill: #000;
      }

      .uuid-e155d2ed-4c60-4dbf-810d-f43dcf7be634, .uuid-c7fe01d7-3500-4daa-bbd4-306fa321bc67 {
        stroke-width: 0px;
      }

      .uuid-c7fe01d7-3500-4daa-bbd4-306fa321bc67 {
        fill: #fa7605;
      }
    </style>
  </defs>
  <rect class="uuid-c7fe01d7-3500-4daa-bbd4-306fa321bc67" width="512" height="512" rx="124.5682" ry="124.5682"/>
  <path class="uuid-e155d2ed-4c60-4dbf-810d-f43dcf7be634" d="M189.0222,339.9154c-46.0858,0-83.6232-37.1884-83.6232-83.6231s37.5374-83.6231,83.6232-83.6231c32.0845,0,60.0087,18.2038,74.025,44.8093l53.3578-53.3578c-19.7427-19.7427-15.7883-15.7883-35.2112-35.2113l-25.3545,16.7769c-15.4685-6.5712-20.7313-8.5484-35.88-15.1487l-5.9316-29.6287h-50.0401l-5.9316,29.6287c-15.4685,6.5712-20.7313,8.5484-35.88,15.1487l-25.3544-16.7769c-19.7428,19.7427-15.7883,15.7883-35.2113,35.2113l16.7769,25.3545c-6.2514,15.4685-8.5484,20.7313-15.1487,35.88l-29.6286,5.9316v50.0402l29.6286,5.9315c6.2514,15.4686,8.5484,20.7314,15.1487,35.88l-16.7769,25.3544c19.7428,19.7427,15.7883,15.7884,35.2113,35.2113l25.3544-16.777c15.4686,6.2514,20.7314,8.5484,35.88,15.1487l5.9316,29.6286h50.0401l5.9316-29.6286c15.4686-6.2514,20.7314-8.5485,35.88-15.1487l25.3545,16.777c19.7427-19.7427,15.7883-15.7884,35.2112-35.2113l-53.3676-53.3676c-14.0195,26.5952-41.9383,44.7902-74.0152,44.7902Z"/>
  <path class="uuid-e155d2ed-4c60-4dbf-810d-f43dcf7be634" d="M452.5469,332.7453h-76.4384v-178.3564c0-14.0718-11.4075-25.4794-25.4794-25.4794h0c-14.0719,0-25.4794,11.4075-25.4794,25.4794v203.8359c0,14.0719,11.4075,25.4794,25.4794,25.4794h101.9179c14.0719,0,25.4794-11.4075,25.4794-25.4794h0c0-14.0719-11.4075-25.4794-25.4794-25.4794ZM350.629,378.3447c-11.1119,0-20.1199-9.008-20.1199-20.1199s9.008-20.1199,20.1199-20.1199,20.1199,9.008,20.1199,20.1199-9.008,20.1199-20.1199,20.1199ZM350.629,327.3858c-11.1119,0-20.1199-9.008-20.1199-20.12s9.008-20.1199,20.1199-20.1199,20.1199,9.008,20.1199,20.1199-9.008,20.12-20.1199,20.12ZM350.629,276.4268c-11.1119,0-20.1199-9.008-20.1199-20.12s9.008-20.1199,20.1199-20.1199,20.1199,9.008,20.1199,20.1199-9.008,20.12-20.1199,20.12ZM350.629,225.4679c-11.1119,0-20.1199-9.008-20.1199-20.1199s9.008-20.12,20.1199-20.12,20.1199,9.008,20.1199,20.12-9.008,20.1199-20.1199,20.1199ZM350.629,174.5089c-11.1119,0-20.1199-9.008-20.1199-20.1199s9.008-20.1199,20.1199-20.1199,20.1199,9.008,20.1199,20.1199-9.008,20.1199-20.1199,20.1199ZM401.588,378.3447c-11.112,0-20.1199-9.008-20.1199-20.1199s9.008-20.1199,20.1199-20.1199,20.1199,9.008,20.1199,20.1199-9.008,20.1199-20.1199,20.1199ZM452.5469,378.3447c-11.112,0-20.12-9.008-20.12-20.1199s9.008-20.1199,20.12-20.1199,20.1199,9.008,20.1199,20.1199-9.008,20.1199-20.1199,20.1199Z"/>
</svg>