<?xml version="1.0" encoding="UTF-8"?>
<svg id="uuid-77446769-0cd9-4712-a81b-74086c4e3612" data-name="Livello 1" xmlns="http://www.w3.org/2000/svg" viewBox="0 0 512 358.059">
  <defs>
    <style>
      .uuid-6fcf8b7b-e61b-478b-9b8a-2fda1ed1f78b {
        fill: #fff;
        stroke-width: 0px;
      }
    </style>
  </defs>
  <path class="uuid-6fcf8b7b-e61b-478b-9b8a-2fda1ed1f78b" d="M179.0462,275.3527c-53.0942,0-96.34-42.8438-96.34-96.3399s43.2458-96.3399,96.34-96.3399c36.9637,0,69.1344,20.9721,85.2821,51.6236l61.4721-61.4721c-22.7451-22.7451-18.1893-18.1893-40.5659-40.5659l-29.2102,19.3282c-17.8209-7.5705-23.884-9.8484-41.3364-17.4524L207.8543,0h-57.6498l-6.8336,34.1344c-17.8209,7.5705-23.884,9.8484-41.3364,17.4524l-29.2101-19.3282c-22.7451,22.7451-18.1893,18.1893-40.5659,40.5659l19.3282,29.2102c-7.202,17.8209-9.8484,23.884-17.4524,41.3363L0,150.2046v57.6499l34.1343,6.8335c7.202,17.8209,9.8484,23.8841,17.4524,41.3364l-19.3282,29.2101c22.7451,22.7451,18.1893,18.1894,40.5659,40.566l29.2101-19.3283c17.8209,7.202,23.8841,9.8484,41.3364,17.4524l6.8336,34.1343h57.6498l6.8336-34.1343c17.8209-7.202,23.8841-9.8484,41.3364-17.4524l29.2102,19.3283c22.7451-22.7451,18.1893-18.1894,40.5659-40.566l-61.4833-61.4833c-16.1515,30.6396-48.316,51.6015-85.2709,51.6015Z"/>
  <path class="uuid-6fcf8b7b-e61b-478b-9b8a-2fda1ed1f78b" d="M482.6458,267.0922h-88.0626V61.6126c0-16.2118-13.1423-29.3541-29.3542-29.3541h0c-16.2119,0-29.3542,13.1423-29.3542,29.3541v234.8337c0,16.2119,13.1423,29.3542,29.3542,29.3542h117.4169c16.2119,0,29.3542-13.1423,29.3542-29.3542h0c0-16.2119-13.1423-29.3542-29.3542-29.3542ZM365.229,319.626c-12.8017,0-23.1796-10.3778-23.1796-23.1796s10.3779-23.1796,23.1796-23.1796,23.1796,10.3779,23.1796,23.1796-10.3778,23.1796-23.1796,23.1796ZM365.229,260.9176c-12.8017,0-23.1796-10.3779-23.1796-23.1797s10.3779-23.1796,23.1796-23.1796,23.1796,10.3779,23.1796,23.1796-10.3778,23.1797-23.1796,23.1797ZM365.229,202.2092c-12.8017,0-23.1796-10.3779-23.1796-23.1797s10.3779-23.1796,23.1796-23.1796,23.1796,10.3779,23.1796,23.1796-10.3778,23.1797-23.1796,23.1797ZM365.229,143.5008c-12.8017,0-23.1796-10.3779-23.1796-23.1796s10.3779-23.1797,23.1796-23.1797,23.1796,10.3779,23.1796,23.1797-10.3778,23.1796-23.1796,23.1796ZM365.229,84.7923c-12.8017,0-23.1796-10.3779-23.1796-23.1796s10.3779-23.1796,23.1796-23.1796,23.1796,10.3778,23.1796,23.1796-10.3778,23.1796-23.1796,23.1796ZM423.9374,319.626c-12.8018,0-23.1796-10.3778-23.1796-23.1796s10.3778-23.1796,23.1796-23.1796,23.1796,10.3779,23.1796,23.1796-10.3779,23.1796-23.1796,23.1796ZM482.6458,319.626c-12.8018,0-23.1797-10.3778-23.1797-23.1796s10.3779-23.1796,23.1797-23.1796,23.1796,10.3779,23.1796,23.1796-10.3779,23.1796-23.1796,23.1796Z"/>
</svg>