<?xml version="1.0" encoding="UTF-8"?>
<svg id="Livello_1" data-name="Livello 1" xmlns="http://www.w3.org/2000/svg" version="1.1" viewBox="0 0 512 512">
  <defs>
    <style>
      .cls-1 {
        fill: #fa7605;
      }

      .cls-1, .cls-2 {
        stroke-width: 0px;
      }

      .cls-2 {
        fill: #000;
      }
    </style>
  </defs>
  <rect class="cls-1" width="512" height="512" rx="140.5" ry="140.5"/>
  <path class="cls-2" d="M457.4,329.3h-73.3v-170.7c0-12.9-9.7-23.9-22.7-24.9s-26.3,10.2-26.3,24.4v195.7c0,13.5,10.9,24.4,24.4,24.4h97.3c12.9,0,23.9-9.7,24.9-22.7,1-13-10.2-26.3-24.4-26.3h0ZM378,370h-.2l.2-.2v.2ZM361.5,372.8c-12.2,1.2-22.2-8.8-21-21,.9-8.9,8.1-16.2,17.1-17.1,8.9-.9,22.2,8.8,21,21-1.2,12.2-8.1,16.2-17.1,17.1ZM359.6,324c-10.9,0-19.9-9.3-19.1-20.4.6-9.5,8.3-17.3,17.9-17.9,11.1-.7,20.4,8.1,20.4,19.1s-8.6,19.1-19.1,19.1h0ZM361.5,275.1c-12.2,1.2-22.2-8.8-21-21,.9-8.9,8.1-16.2,17.1-17.1,8.9-.9,22.2,8.8,21,21-.9,8.9-8.1,16.2-17.1,17.1ZM372,235h0ZM361.5,226.1c-12.2,1.2-22.2-8.8-21-21,.9-8.9,8.1-16.2,17.1-17.1s22.2,8.8,21,21c-.9,8.9-8.1,16.2-17.1,17.1ZM345.6,187.1h0ZM350.8,184.3h.2-.2ZM368.1,181h0ZM373,178.6h0ZM361.5,177.2c-12.2,1.2-22.2-8.8-21-21,.9-8.9,8.1-16.2,17.1-17.1,12.2-1.2,22.2,8.8,21,21-1.2,12.2-8.1,16.2-17.1,17.1h0ZM410.4,372.8c-12.2,1.2-22.2-8.8-21-21,.9-8.9,8.1-16.2,17.1-17.1,8.9-.9,22.2,8.8,21,21-1.2,12.2-8.1,16.2-17.1,17.1ZM459.4,372.8c-12.2,1.2-22.2-8.8-21-21,.9-8.9,8.1-16.2,17.1-17.1,8.9-.9,22.2,8.8,21,21-1.2,12.2-8.1,16.2-17.1,17.1Z"/>
  <path class="cls-2" d="M192,342.9c-47.9,0-86.8-38.9-86.8-86.8s38.9-86.8,86.8-86.8,59,16.8,74.3,41.8l58.9-51.3c-20.6-20.6-16.3-16.3-36.9-36.9l-26.3,17.7c-16.1-6.7-21.5-8.9-37.7-15.6l-6.1-31.1h-52.1l-6.1,31.1c-16.1,6.7-21.4,8.9-37.7,15.6l-26.3-17.7c-20.6,20.6-16.3,16.3-36.9,36.9l17.7,26.3c-6.6,16.1-8.9,21.4-15.5,37.7l-31.2,6.2v52.1l31.1,6.1c6.6,16.2,8.9,21.4,15.5,37.7l-17.7,26.3c20.6,20.6,16.3,16.3,36.9,36.9l26.3-17.7c16.1,6.6,21.4,8.9,37.7,15.5l6.1,31.1h52.1l6.1-31.1c16.1-6.6,21.5-8.9,37.7-15.5l26.3,17.7,36.9-36.9-58.9-51.3c-15.2,25.1-42.8,41.8-74.3,41.8h0l.2.2Z"/>
</svg>